<?xml version="1.0" standalone="no"?>
<!DOCTYPE svg PUBLIC "-//W3C//DTD SVG 20010904//EN"
 "http://www.w3.org/TR/2001/REC-SVG-20010904/DTD/svg10.dtd">
<svg version="1.0" xmlns="http://www.w3.org/2000/svg"
 width="16.000000pt" height="16.000000pt" viewBox="0 0 16.000000 16.000000"
 preserveAspectRatio="xMidYMid meet">

<g transform="translate(0.000000,16.000000) scale(0.100000,-0.100000)"
fill="#000000" stroke="none">
<path d="M127 140 c-6 -22 -36 -27 -56 -7 -10 10 -16 8 -28 -10 -9 -13 -22
-23 -29 -23 -16 0 -19 -16 -5 -25 6 -3 15 4 21 15 12 22 55 27 64 8 4 -9 10
-6 22 10 9 12 23 22 31 22 8 0 13 5 11 12 -7 21 -25 20 -31 -2z"/>
<path d="M130 55 c0 -42 3 -55 15 -55 12 0 15 13 15 55 0 42 -3 55 -15 55 -12
0 -15 -13 -15 -55z"/>
<path d="M40 45 c0 -33 4 -45 15 -45 11 0 15 12 15 45 0 33 -4 45 -15 45 -11
0 -15 -12 -15 -45z"/>
<path d="M90 35 c0 -24 5 -35 15 -35 10 0 15 11 15 35 0 24 -5 35 -15 35 -10
0 -15 -11 -15 -35z"/>
<path d="M0 25 c0 -16 6 -25 15 -25 9 0 15 9 15 25 0 16 -6 25 -15 25 -9 0
-15 -9 -15 -25z"/>
</g>
</svg>
