<svg width="53" height="110" viewBox="0 0 53 110" fill="none" xmlns="http://www.w3.org/2000/svg">
<g opacity="0.993333">
<mask id="path-1-outside-1_28_7" maskUnits="userSpaceOnUse" x="-0.217053" y="-1.03275" width="54.0334" height="111.626" fill="black">
<rect fill="white" x="-0.217053" y="-1.03275" width="54.0334" height="111.626"/>
<path d="M22.2532 27.556L5.26524 30.5515L3.23356 19.0292C7.86215 18.2131 11.4857 17.168 14.1043 15.8939C16.8213 14.6025 18.8606 12.9228 20.2222 10.855C21.5665 8.68864 22.5748 5.76918 23.2473 2.09661L34.1787 0.169115L52.4117 103.574L36.1624 106.439L22.2532 27.556Z"/>
</mask>
<path d="M22.2532 27.556L5.26524 30.5515L3.23356 19.0292C7.86215 18.2131 11.4857 17.168 14.1043 15.8939C16.8213 14.6025 18.8606 12.9228 20.2222 10.855C21.5665 8.68864 22.5748 5.76918 23.2473 2.09661L34.1787 0.169115L52.4117 103.574L36.1624 106.439L22.2532 27.556Z" fill="#5A924E"/>
<path d="M22.2532 27.556L23.238 27.3824L23.0643 26.3976L22.0795 26.5712L22.2532 27.556ZM5.26524 30.5515L4.28043 30.7251L4.45408 31.7099L5.43889 31.5363L5.26524 30.5515ZM3.23356 19.0292L3.05991 18.0444L2.0751 18.218L2.24875 19.2029L3.23356 19.0292ZM14.1043 15.8939L13.675 14.9907L13.6668 14.9947L14.1043 15.8939ZM20.2222 10.855L21.0574 11.4049L21.0648 11.3937L21.0719 11.3822L20.2222 10.855ZM23.2473 2.09661L23.0736 1.1118L22.3889 1.23254L22.2636 1.9165L23.2473 2.09661ZM34.1787 0.169115L35.1635 -0.00453304L34.9898 -0.989341L34.005 -0.815693L34.1787 0.169115ZM52.4117 103.574L52.5854 104.559L53.5702 104.385L53.3965 103.4L52.4117 103.574ZM36.1624 106.439L35.1776 106.613L35.3512 107.598L36.336 107.424L36.1624 106.439ZM22.0795 26.5712L5.09159 29.5666L5.43889 31.5363L22.4268 28.5408L22.0795 26.5712ZM6.25005 30.3778L4.21837 18.8556L2.24875 19.2029L4.28043 30.7251L6.25005 30.3778ZM3.40721 20.014C8.07859 19.1903 11.8046 18.1249 14.5418 16.7931L13.6668 14.9947C11.1669 16.211 7.64571 17.2358 3.05991 18.0444L3.40721 20.014ZM14.5336 16.7971C17.3801 15.4441 19.5757 13.6552 21.0574 11.4049L19.387 10.305C18.1455 12.1904 16.2625 13.7609 13.675 14.9907L14.5336 16.7971ZM21.0719 11.3822C22.5052 9.07233 23.5455 6.02028 24.2309 2.27672L22.2636 1.9165C21.6042 5.51808 20.6277 8.30494 19.3725 10.3277L21.0719 11.3822ZM23.4209 3.08142L34.3523 1.15392L34.005 -0.815693L23.0736 1.1118L23.4209 3.08142ZM33.1939 0.342763L51.4269 103.748L53.3965 103.4L35.1635 -0.00453304L33.1939 0.342763ZM52.2381 102.589L35.9887 105.454L36.336 107.424L52.5854 104.559L52.2381 102.589ZM37.1472 106.265L23.238 27.3824L21.2684 27.7297L35.1776 106.613L37.1472 106.265Z" fill="#5A924E" mask="url(#path-1-outside-1_28_7)"/>
</g>
</svg>
