<svg width="68" height="114" viewBox="0 0 68 114" fill="none" xmlns="http://www.w3.org/2000/svg">
<g opacity="0.976173">
<mask id="path-1-outside-1_28_8" maskUnits="userSpaceOnUse" x="-1.54444" y="-1.72633" width="71.1225" height="116.547" fill="black">
<rect fill="white" x="-1.54444" y="-1.72633" width="71.1225" height="116.547"/>
<path d="M17.0519 102.288C15.7495 94.9021 15.8199 88.391 17.2631 82.7548C18.689 77.02 21.8904 70.4137 26.8675 62.9359C31.7461 55.4754 34.9186 49.2804 36.3849 44.3509C37.9496 39.404 38.2979 34.4685 37.4296 29.5445C36.6482 25.1129 35.3713 22.1902 33.5989 20.7765C31.9076 19.2469 29.6832 18.7253 26.9258 19.2115C21.3124 20.2013 19.1047 24.0938 20.3029 30.8889L22.2564 41.968L6.89345 44.6769L5.12224 34.6319C3.64623 26.261 4.58561 19.4951 7.94039 14.3342C11.2778 9.07473 16.8857 5.75042 24.7642 4.36123C32.6427 2.97204 39.0494 4.17785 43.9844 7.97864C48.902 11.681 52.0988 17.7175 53.5748 26.0884C54.6861 32.3912 54.245 38.8154 52.2513 45.361C50.3562 51.8893 46.4015 59.6946 40.3872 68.7769C36.4646 74.7488 33.9528 79.5073 32.8516 83.0524C31.7331 86.4989 31.4951 90.0441 32.1376 93.6879L32.5283 95.9037L63.4021 90.4599L66.0068 105.232L19.0315 113.515L17.0519 102.288Z"/>
</mask>
<path d="M17.0519 102.288C15.7495 94.9021 15.8199 88.391 17.2631 82.7548C18.689 77.02 21.8904 70.4137 26.8675 62.9359C31.7461 55.4754 34.9186 49.2804 36.3849 44.3509C37.9496 39.404 38.2979 34.4685 37.4296 29.5445C36.6482 25.1129 35.3713 22.1902 33.5989 20.7765C31.9076 19.2469 29.6832 18.7253 26.9258 19.2115C21.3124 20.2013 19.1047 24.0938 20.3029 30.8889L22.2564 41.968L6.89345 44.6769L5.12224 34.6319C3.64623 26.261 4.58561 19.4951 7.94039 14.3342C11.2778 9.07473 16.8857 5.75042 24.7642 4.36123C32.6427 2.97204 39.0494 4.17785 43.9844 7.97864C48.902 11.681 52.0988 17.7175 53.5748 26.0884C54.6861 32.3912 54.245 38.8154 52.2513 45.361C50.3562 51.8893 46.4015 59.6946 40.3872 68.7769C36.4646 74.7488 33.9528 79.5073 32.8516 83.0524C31.7331 86.4989 31.4951 90.0441 32.1376 93.6879L32.5283 95.9037L63.4021 90.4599L66.0068 105.232L19.0315 113.515L17.0519 102.288Z" fill="#5A924E"/>
<path d="M17.2631 82.7548L18.2319 83.0028L18.2336 82.996L17.2631 82.7548ZM26.8675 62.9359L27.7 63.49L27.7045 63.4832L26.8675 62.9359ZM36.3849 44.3509L35.4314 44.0493L35.4288 44.0575L35.4264 44.0658L36.3849 44.3509ZM33.5989 20.7765L32.9281 21.5182L32.9511 21.539L32.9753 21.5583L33.5989 20.7765ZM22.2564 41.968L22.4301 42.9528L23.4149 42.7792L23.2413 41.7944L22.2564 41.968ZM6.89345 44.6769L5.90864 44.8506L6.08229 45.8354L7.0671 45.6617L6.89345 44.6769ZM7.94039 14.3342L8.77887 14.8792L8.78474 14.87L7.94039 14.3342ZM43.9844 7.97864L43.3741 8.77095L43.3829 8.77754L43.9844 7.97864ZM52.2513 45.361L51.2946 45.0696L51.291 45.0822L52.2513 45.361ZM40.3872 68.7769L39.5534 68.2248L39.5514 68.2279L40.3872 68.7769ZM32.8516 83.0524L33.8029 83.3611L33.8066 83.349L32.8516 83.0524ZM32.5283 95.9037L31.5435 96.0774L31.7172 97.0622L32.702 96.8885L32.5283 95.9037ZM63.4021 90.4599L64.3869 90.2862L64.2132 89.3014L63.2284 89.4751L63.4021 90.4599ZM66.0068 105.232L66.1804 106.217L67.1652 106.043L66.9916 105.058L66.0068 105.232ZM19.0315 113.515L18.0466 113.689L18.2203 114.673L19.2051 114.5L19.0315 113.515ZM18.0367 102.115C16.7522 94.8297 16.8326 88.4675 18.2319 83.0028L16.2944 82.5067C14.8073 88.3145 14.7469 94.9746 16.0671 102.462L18.0367 102.115ZM18.2336 82.996C19.6212 77.4149 22.7569 70.9167 27.7 63.4899L26.0351 62.3818C21.024 69.9108 17.7567 76.6252 16.2927 82.5135L18.2336 82.996ZM27.7045 63.4832C32.6033 55.9917 35.8365 49.7021 37.3434 44.636L35.4264 44.0658C34.0007 48.8587 30.8889 54.9591 26.0306 62.3886L27.7045 63.4832ZM37.3383 44.6524C38.9497 39.558 39.3117 34.4596 38.4144 29.3708L36.4448 29.7181C37.284 34.4775 36.9495 39.25 35.4314 44.0493L37.3383 44.6524ZM38.4144 29.3708C37.6264 24.9016 36.3006 21.6523 34.2225 19.9947L32.9753 21.5583C34.442 22.7281 35.67 25.3241 36.4448 29.7181L38.4144 29.3708ZM34.2696 20.0348C32.2973 18.2511 29.7367 17.7004 26.7521 18.2267L27.0994 20.1963C29.6297 19.7501 31.5179 20.2428 32.9281 21.5182L34.2696 20.0348ZM26.7521 18.2267C23.7388 18.758 21.4798 20.106 20.1901 22.3799C18.9239 24.6125 18.6995 27.5541 19.3181 31.0626L21.2877 30.7153C20.7082 27.4286 20.9885 25.0264 21.9298 23.3665C22.8478 21.748 24.4993 20.6548 27.0994 20.1963L26.7521 18.2267ZM19.3181 31.0626L21.2716 42.1417L23.2413 41.7944L21.2877 30.7153L19.3181 31.0626ZM22.0828 40.9832L6.7198 43.6921L7.0671 45.6617L22.4301 42.9528L22.0828 40.9832ZM7.87826 44.5033L6.10704 34.4583L4.13743 34.8055L5.90864 44.8506L7.87826 44.5033ZM6.10704 34.4583C4.65811 26.2409 5.60732 19.7582 8.77882 14.8792L7.10195 13.7892C3.56391 19.2321 2.63435 26.2812 4.13743 34.8055L6.10704 34.4583ZM8.78474 14.87C11.9315 9.91103 17.2525 6.70116 24.9378 5.34604L24.5905 3.37642C16.5189 4.79967 10.6241 8.23843 7.09603 13.7984L8.78474 14.87ZM24.9378 5.34604C32.6231 3.99091 38.7212 5.18728 43.3742 8.77091L44.5945 7.18638C39.3776 3.16842 32.6622 1.95318 24.5905 3.37642L24.9378 5.34604ZM43.3829 8.77754C48.0318 12.2776 51.141 18.0447 52.59 26.2621L54.5596 25.9148C53.0565 17.3904 49.7721 11.0843 44.5858 7.17975L43.3829 8.77754ZM52.59 26.2621C53.6721 32.3991 53.2457 38.664 51.2947 45.0697L53.2079 45.6524C55.2442 38.9668 55.7002 32.3832 54.5596 25.9148L52.59 26.2621ZM51.291 45.0822C49.4357 51.4732 45.5412 59.1825 39.5534 68.2248L41.221 69.3291C47.2617 60.2067 51.2766 52.3054 53.2117 45.6398L51.291 45.0822ZM39.5514 68.2279C35.6156 74.2199 33.0405 79.0732 31.8966 82.7557L33.8066 83.349C34.8651 79.9414 37.3137 75.2777 41.223 69.3259L39.5514 68.2279ZM31.9005 82.7437C30.7304 86.3493 30.4825 90.0602 31.1528 93.8616L33.1224 93.5143C32.5077 90.0281 32.7359 86.6486 33.8028 83.361L31.9005 82.7437ZM31.1528 93.8616L31.5435 96.0774L33.5131 95.7301L33.1224 93.5143L31.1528 93.8616ZM32.702 96.8885L63.5757 91.4447L63.2284 89.4751L32.3547 94.9189L32.702 96.8885ZM62.4173 90.6335L65.022 105.406L66.9916 105.058L64.3869 90.2862L62.4173 90.6335ZM65.8331 104.247L18.8578 112.53L19.2051 114.5L66.1804 106.217L65.8331 104.247ZM20.0163 113.341L18.0367 102.115L16.0671 102.462L18.0466 113.689L20.0163 113.341Z" fill="#5A924E" mask="url(#path-1-outside-1_28_8)"/>
</g>
</svg>
