<svg width="68" height="116" viewBox="0 0 68 116" fill="none" xmlns="http://www.w3.org/2000/svg">
<g opacity="0.937486">
<mask id="path-1-outside-1_28_9" maskUnits="userSpaceOnUse" x="-1.52925" y="-1.55269" width="71.4698" height="118.517" fill="black">
<rect fill="white" x="-1.52925" y="-1.55269" width="71.4698" height="118.517"/>
<path d="M43.6319 110.877C35.6549 112.283 29.2077 111.135 24.29 107.433C19.4709 103.713 16.332 97.7174 14.8734 89.445L13.3887 81.0249L28.7517 78.316L30.3666 87.4747C31.5648 94.2699 34.9706 97.1726 40.584 96.1828C43.3414 95.6966 45.2619 94.4948 46.3455 92.5775C47.5101 90.5444 47.7104 87.3613 46.9464 83.0281L45.4617 74.608C44.6282 69.8809 43.2007 66.6802 41.1792 65.0058C39.1404 63.2329 36.2498 62.6764 32.5075 63.3362L27.0419 64.3L24.4371 49.5279L30.346 48.486C33.5958 47.9129 35.861 46.6504 37.1415 44.6984C38.5205 42.729 38.8627 39.7747 38.1681 35.8355L36.8397 28.3017C36.2145 24.7564 35.0158 22.2769 33.2434 20.8632C31.4709 19.4495 29.3537 18.9597 26.8917 19.3938C21.6722 20.3142 19.6268 23.975 20.7556 30.3762L21.9537 37.1714L6.59073 39.8803L5.62698 34.4146C4.16833 26.1422 5.06716 19.4342 8.32346 14.2906C11.6782 9.12968 17.1964 5.87197 24.8779 4.51751C32.6579 3.14569 38.9574 4.31962 43.7765 8.0393C48.5783 11.6605 51.7085 17.6073 53.1671 25.8797L53.8183 29.5727C54.8081 35.1861 54.6713 39.8812 53.408 43.6579C52.1272 47.3362 49.6475 50.2613 45.9687 52.4331L46.0208 52.7285C50.5333 53.5575 54.0377 55.5797 56.534 58.7951C59.0303 62.0105 60.7646 66.3756 61.737 71.8905L63.352 81.0492C64.8106 89.3216 63.8626 96.0383 60.5078 101.199C57.2341 106.244 51.6088 109.47 43.6319 110.877Z"/>
</mask>
<path d="M43.6319 110.877C35.6549 112.283 29.2077 111.135 24.29 107.433C19.4709 103.713 16.332 97.7174 14.8734 89.445L13.3887 81.0249L28.7517 78.316L30.3666 87.4747C31.5648 94.2699 34.9706 97.1726 40.584 96.1828C43.3414 95.6966 45.2619 94.4948 46.3455 92.5775C47.5101 90.5444 47.7104 87.3613 46.9464 83.0281L45.4617 74.608C44.6282 69.8809 43.2007 66.6802 41.1792 65.0058C39.1404 63.2329 36.2498 62.6764 32.5075 63.3362L27.0419 64.3L24.4371 49.5279L30.346 48.486C33.5958 47.9129 35.861 46.6504 37.1415 44.6984C38.5205 42.729 38.8627 39.7747 38.1681 35.8355L36.8397 28.3017C36.2145 24.7564 35.0158 22.2769 33.2434 20.8632C31.4709 19.4495 29.3537 18.9597 26.8917 19.3938C21.6722 20.3142 19.6268 23.975 20.7556 30.3762L21.9537 37.1714L6.59073 39.8803L5.62698 34.4146C4.16833 26.1422 5.06716 19.4342 8.32346 14.2906C11.6782 9.12968 17.1964 5.87197 24.8779 4.51751C32.6579 3.14569 38.9574 4.31962 43.7765 8.0393C48.5783 11.6605 51.7085 17.6073 53.1671 25.8797L53.8183 29.5727C54.8081 35.1861 54.6713 39.8812 53.408 43.6579C52.1272 47.3362 49.6475 50.2613 45.9687 52.4331L46.0208 52.7285C50.5333 53.5575 54.0377 55.5797 56.534 58.7951C59.0303 62.0105 60.7646 66.3756 61.737 71.8905L63.352 81.0492C64.8106 89.3216 63.8626 96.0383 60.5078 101.199C57.2341 106.244 51.6088 109.47 43.6319 110.877Z" fill="#5A924E"/>
<path d="M24.29 107.433L23.679 108.225L23.6886 108.232L24.29 107.433ZM13.3887 81.0249L13.215 80.0401L12.2302 80.2138L12.4039 81.1986L13.3887 81.0249ZM28.7517 78.316L29.7365 78.1424L29.5629 77.1575L28.578 77.3312L28.7517 78.316ZM46.3455 92.5775L45.4777 92.0805L45.4749 92.0855L46.3455 92.5775ZM41.1792 65.0058L40.523 65.7604L40.5321 65.7682L40.5413 65.7759L41.1792 65.0058ZM27.0419 64.3L26.0571 64.4736L26.2307 65.4584L27.2155 65.2848L27.0419 64.3ZM24.4371 49.5279L24.2635 48.543L23.2787 48.7167L23.4523 49.7015L24.4371 49.5279ZM37.1415 44.6984L36.3224 44.1248L36.3137 44.1372L36.3054 44.1499L37.1415 44.6984ZM33.2434 20.8632L33.8669 20.0814L33.8669 20.0814L33.2434 20.8632ZM21.9537 37.1714L22.1274 38.1562L23.1122 37.9825L22.9385 36.9977L21.9537 37.1714ZM6.59073 39.8803L5.60592 40.0539L5.77957 41.0387L6.76437 40.8651L6.59073 39.8803ZM8.32346 14.2906L7.48496 13.7456L7.47854 13.7557L8.32346 14.2906ZM43.7765 8.0393L43.1655 8.83097L43.1744 8.83771L43.7765 8.0393ZM53.408 43.6579L54.3524 43.9868L54.3563 43.9752L53.408 43.6579ZM45.9687 52.4331L45.4604 51.5719L44.8636 51.9242L44.9839 52.6067L45.9687 52.4331ZM46.0208 52.7285L45.036 52.9022L45.1567 53.5865L45.8401 53.7121L46.0208 52.7285ZM56.534 58.7951L55.7441 59.4083L56.534 58.7951ZM60.5078 101.199L59.6693 100.654L59.6689 100.655L60.5078 101.199ZM43.4582 109.892C35.6638 111.266 29.5236 110.122 24.8915 106.634L23.6886 108.232C28.8917 112.149 35.6461 113.3 43.8055 111.862L43.4582 109.892ZM24.9011 106.641C20.3434 103.124 17.2901 97.3922 15.8582 89.2714L13.8886 89.6187C15.3739 98.0426 18.5984 104.303 23.679 108.225L24.9011 106.641ZM15.8582 89.2714L14.3735 80.8513L12.4039 81.1986L13.8886 89.6187L15.8582 89.2714ZM13.5623 82.0097L28.9253 79.3008L28.578 77.3312L13.215 80.0401L13.5623 82.0097ZM27.7669 78.4896L29.3818 87.6484L31.3514 87.3011L29.7365 78.1424L27.7669 78.4896ZM29.3818 87.6484C30.0005 91.1568 31.2175 93.8443 33.1709 95.5092C35.1605 97.2049 37.7443 97.6989 40.7576 97.1676L40.4103 95.198C37.8103 95.6564 35.8844 95.194 34.4682 93.987C33.0159 92.7493 31.931 90.5877 31.3514 87.3011L29.3818 87.6484ZM40.7576 97.1676C43.7227 96.6448 45.9471 95.3149 47.2161 93.0695L45.4749 92.0855C44.5768 93.6747 42.9602 94.7484 40.4103 95.198L40.7576 97.1676ZM47.2132 93.0746C48.5597 90.7239 48.7047 87.2414 47.9312 82.8545L45.9616 83.2018C46.7161 87.4811 46.4605 90.3649 45.4778 92.0805L47.2132 93.0746ZM47.9312 82.8545L46.4465 74.4344L44.4769 74.7817L45.9616 83.2018L47.9312 82.8545ZM46.4465 74.4344C45.602 69.6453 44.1213 66.1443 41.8171 64.2357L40.5413 65.7759C42.28 67.2161 43.6543 70.1166 44.4769 74.7817L46.4465 74.4344ZM41.8354 64.2512C39.4868 62.209 36.2466 61.6615 32.3339 62.3514L32.6812 64.321C36.253 63.6912 38.7939 64.2568 40.523 65.7604L41.8354 64.2512ZM32.3339 62.3514L26.8682 63.3152L27.2155 65.2848L32.6812 64.321L32.3339 62.3514ZM28.0267 64.1263L25.4219 49.3542L23.4523 49.7015L26.0571 64.4736L28.0267 64.1263ZM24.6108 50.5127L30.5196 49.4708L30.1723 47.5012L24.2635 48.543L24.6108 50.5127ZM30.5196 49.4708C33.9264 48.8701 36.4921 47.5115 37.9777 45.2469L36.3054 44.1499C35.2299 45.7894 33.2653 46.9558 30.1723 47.5012L30.5196 49.4708ZM37.9607 45.272C39.5662 42.979 39.8646 39.6982 39.1529 35.6618L37.1833 36.0091C37.8607 39.8512 37.4748 42.479 36.3224 44.1248L37.9607 45.272ZM39.1529 35.6618L37.8245 28.1281L35.8549 28.4754L37.1833 36.0091L39.1529 35.6618ZM37.8245 28.1281C37.1806 24.4766 35.9144 21.7145 33.8669 20.0814L32.6198 21.645C34.1172 22.8393 35.2485 25.0362 35.8549 28.4754L37.8245 28.1281ZM33.8669 20.0814C31.8456 18.4692 29.4301 17.9308 26.7181 18.409L27.0654 20.3786C29.2773 19.9886 31.0963 20.4298 32.6198 21.645L33.8669 20.0814ZM26.7181 18.409C23.8974 18.9064 21.7768 20.1821 20.5701 22.3419C19.3879 24.4577 19.1872 27.2407 19.7707 30.5498L21.7404 30.2026C21.1951 27.1105 21.4528 24.8624 22.316 23.3174C23.1547 21.8164 24.6665 20.8016 27.0654 20.3786L26.7181 18.409ZM19.7707 30.5498L20.9689 37.345L22.9385 36.9977L21.7404 30.2026L19.7707 30.5498ZM21.7801 36.1866L6.41708 38.8955L6.76437 40.8651L22.1274 38.1562L21.7801 36.1866ZM7.57553 39.7066L6.61179 34.241L4.64217 34.5883L5.60592 40.0539L7.57553 39.7066ZM6.61179 34.241C5.17987 26.1201 6.08876 19.69 9.16837 14.8255L7.47854 13.7557C4.04556 19.1784 3.1568 26.1643 4.64217 34.5883L6.61179 34.241ZM9.16189 14.8356C12.3275 9.96575 17.5655 6.82231 25.0515 5.50232L24.7042 3.5327C16.8273 4.92162 11.029 8.29361 7.48502 13.7456L9.16189 14.8356ZM25.0515 5.50232C32.6417 4.16396 38.6308 5.33075 43.1655 8.83092L44.3875 7.24768C39.284 3.3085 32.674 2.12742 24.7042 3.5327L25.0515 5.50232ZM43.1744 8.83771C47.7059 12.2551 50.7501 17.9308 52.1823 26.0533L54.152 25.706C52.6669 17.2838 49.4507 11.0659 44.3786 7.24089L43.1744 8.83771ZM52.1823 26.0533L52.8335 29.7464L54.8031 29.3991L54.152 25.706L52.1823 26.0533ZM52.8335 29.7464C53.8061 35.262 53.6522 39.7755 52.4596 43.3407L54.3563 43.9752C55.6904 39.9869 55.8102 35.1102 54.8031 29.3991L52.8335 29.7464ZM52.4636 43.3291C51.2684 46.7618 48.9566 49.5079 45.4604 51.5719L46.4771 53.2942C50.3384 51.0146 52.9861 47.9106 54.3524 43.9868L52.4636 43.3291ZM44.9839 52.6067L45.036 52.9022L47.0056 52.5549L46.9535 52.2594L44.9839 52.6067ZM45.8401 53.7121C50.1439 54.5027 53.4179 56.412 55.7441 59.4083L57.3239 58.1818C54.6576 54.7475 50.9227 52.6123 46.2015 51.745L45.8401 53.7121ZM55.7441 59.4083C58.1102 62.4561 59.798 66.6523 60.7522 72.0642L62.7219 71.7169C61.7313 66.0989 59.9503 61.5648 57.3239 58.1818L55.7441 59.4083ZM60.7522 72.0642L62.3672 81.2229L64.3368 80.8756L62.7219 71.7169L60.7522 72.0642ZM62.3672 81.2229C63.7981 89.3381 62.8423 95.773 59.6693 100.654L61.3462 101.744C64.8828 96.3037 65.8232 89.3052 64.3368 80.8756L62.3672 81.2229ZM59.6689 100.655C56.5933 105.395 51.2606 108.516 43.4582 109.892L43.8055 111.862C51.9571 110.424 57.8749 107.094 61.3466 101.744L59.6689 100.655Z" fill="#5A924E" mask="url(#path-1-outside-1_28_9)"/>
</g>
</svg>
