<svg xmlns="http://www.w3.org/2000/svg" version="1.1" xmlns:xlink="http://www.w3.org/1999/xlink" xmlns:svgjs="http://svgjs.dev/svgjs" width="1920" height="1080" preserveAspectRatio="none" viewBox="0 0 1920 1080">
    <g mask="url(&quot;#SvgjsMask1035&quot;)" fill="none">
        <rect width="1920" height="1080" x="0" y="0" fill="rgba(255, 255, 255, 1)"></rect>
        <path d="M691.124,377.109C763.163,375.87,830.699,343.454,869.28,282.604C910.922,216.926,923.179,135.395,888.514,65.782C849.888,-11.786,777.746,-72.825,691.124,-75.161C600.906,-77.594,515.987,-25.48,474.389,54.613C435.538,129.416,455.013,218.96,502.029,288.919C543.609,350.788,616.592,378.391,691.124,377.109" fill="rgba(90, 146, 78, 0.4)" class="triangle-float2"></path>
        <path d="M1944.923,1231.446C2056.357,1231.125,2154.911,1162.29,2208.418,1064.543C2259.823,970.635,2255.936,856.436,2200.258,764.997C2146.748,677.119,2047.796,630.112,1944.923,631.811C1845.072,633.46,1755.975,688.051,1703.792,773.198C1648.918,862.736,1629.879,973.137,1678.781,1066.071C1730.91,1165.137,1832.979,1231.769,1944.923,1231.446" fill="rgba(90, 146, 78, 0.4)" class="triangle-float1"></path>
        <path d="M1226.8537494940574 201.32119528613194L1306.4467322370313 446.2832079488561 1551.4087448997552 366.69022520588237 1471.8157621567816 121.72821254315818z" fill="rgba(90, 146, 78, 0.4)" class="triangle-float1"></path>
        <path d="M292.547,596.164C374.532,594.205,452.162,558.912,495.788,489.471C542.444,415.207,562.606,317.221,513.405,244.617C467.786,177.298,373.708,184.465,292.547,189.555C223.092,193.911,155.335,212.918,114.968,269.605C66.47,337.71,31.818,426.151,71.759,499.602C112.888,575.236,206.478,598.22,292.547,596.164" fill="rgba(90, 146, 78, 0.4)" class="triangle-float2"></path>
        <path d="M565.4041865376564 158.5080974545709L855.8136104665382 258.50408127282924 665.4001703559147-131.90132647431088z" fill="rgba(90, 146, 78, 0.4)" class="triangle-float1"></path>
        <path d="M1131.3145702808804 608.5447644521979L1315.122363078278 686.7733624168117 1296.8692098636632 513.1062102941999z" fill="rgba(90, 146, 78, 0.4)" class="triangle-float2"></path>
        <path d="M1030.1010150473148 756.3253424229777L1251.6572744454502 859.6387228925037 1354.9706549149762 638.0824634943682 1133.4143955168408 534.7690830248423z" fill="rgba(90, 146, 78, 0.4)" class="triangle-float2"></path>
        <path d="M105.6600222535406 977.0158251930893L109.34534393098448 776.8179194646627-45.200597950973275 858.9914543883065z" fill="rgba(90, 146, 78, 0.4)" class="triangle-float3"></path>
        <path d="M998.641124765466 539.9499542820046L1094.6993551110613 402.76458408276767 840.8921846394082 327.26992366399315z" fill="rgba(90, 146, 78, 0.4)" class="triangle-float3"></path>
        <path d="M772.7099848515595 157.8474908213816L837.7601722492801-122.69575255032065 595.7671425699847-53.305367903988284z" fill="rgba(90, 146, 78, 0.4)" class="triangle-float2"></path>
        <path d="M449.81744324626305 1000.462597287012L759.657237222767 1011.2824413118362 770.4770812475912 701.4426473353324 460.63728727108725 690.6228033105081z" fill="rgba(90, 146, 78, 0.4)" class="triangle-float1"></path>
        <path d="M1489.6202054418043 205.52199260657014L1697.2528262108126 108.7013114591888 1600.4321450634313-98.93130930981951 1392.799524294423-2.1106281624381893z" fill="rgba(90, 146, 78, 0.4)" class="triangle-float2"></path>
    </g>
    <defs>
        <mask id="SvgjsMask1035">
            <rect width="1920" height="1080" fill="#ffffff"></rect>
        </mask>
        <style>
            @keyframes float1 {
                    0%{transform: translate(0, 0)}
                    50%{transform: translate(-10px, 0)}
                    100%{transform: translate(0, 0)}
                }

                .triangle-float1 {
                    animation: float1 5s infinite;
                }

                @keyframes float2 {
                    0%{transform: translate(0, 0)}
                    50%{transform: translate(-5px, -5px)}
                    100%{transform: translate(0, 0)}
                }

                .triangle-float2 {
                    animation: float2 4s infinite;
                }

                @keyframes float3 {
                    0%{transform: translate(0, 0)}
                    50%{transform: translate(0, -10px)}
                    100%{transform: translate(0, 0)}
                }

                .triangle-float3 {
                    animation: float3 6s infinite;
                }
        </style>
    </defs>
  
</svg>


